<svg width="145" height="23" viewBox="0 0 145 23" fill="none" xmlns="http://www.w3.org/2000/svg">
  <g>
    <path fill="black" d="M137.327 3.45779C135.771 5.01422 134.876 7.07627 134.627 9.62761V0.675781H128.744V21.5828H134.627V16.1446C134.627 16.1446 134.45 11.6011 136.125 10.075C137.98 8.22029 140.537 7.29373 143.798 7.29529H145V0.675781C141.738 0.675781 139.18 1.60312 137.327 3.45779Z" />
    <path fill="black" d="M3.62081 2.70422C1.49585 4.58918 0 7.53429 0 11.204C0 15.1138 1.73817 17.728 3.33189 19.2192C5.21452 21.004 8.1107 22.2482 11.3937 22.2482C13.2736 22.2454 15.1264 21.7991 16.8016 20.9457V15.2116C15.5432 16.3852 13.8879 17.0402 12.1672 17.0453C8.64194 17.0453 6.08361 14.5336 6.08361 11.1062C6.08361 8.07718 8.0641 5.21595 11.9738 5.21595C13.7617 5.16819 15.4963 5.82704 16.8016 7.04965V1.2573C15.0433 0.402006 13.1087 -0.0281764 11.1537 0.00143106C9.12424 0.00143106 6.17914 0.43714 3.62081 2.70422Z" />
    <path fill="black" d="M66.0316 12.4562L60.5259 0.675781H53.96L64.4845 21.5828H67.5764L78.101 0.675781H71.5351L66.0316 12.4562Z" />
    <path fill="black" d="M96.5575 0.675781L91.0541 12.4562L85.5483 0.675781H78.9824L89.507 21.5828H92.5989L103.123 0.675781H96.5575Z" />
    <path fill="black" d="M50.9895 3.45779C49.1348 1.60312 46.5772 0.675781 43.3168 0.675781H30.192C26.93 0.675781 24.3724 1.60312 22.5193 3.45779C18.81 6.83395 18.81 15.4246 22.5193 18.8008C24.374 20.6555 26.9315 21.5828 30.192 21.5828H43.3168C46.5788 21.5828 49.1364 20.6555 50.9895 18.8008C54.6988 15.4246 54.6988 6.83395 50.9895 3.45779ZM50.7728 13.7913C49.3002 14.5152 46.8149 14.8771 43.3168 14.8771H30.192C26.6939 14.8771 24.2086 14.5152 22.736 13.7913C19.7886 12.4189 19.7886 9.83031 22.736 8.46727C24.2086 7.74187 26.6939 7.37994 30.192 7.38149H43.3168C46.8134 7.38149 49.2987 7.74342 50.7728 8.46727C53.7202 9.83963 53.7202 12.4189 50.7728 13.7913Z" />
    <path fill="black" d="M114.151 0C111.639 0 108.743 0.531238 106.28 2.94511C104.784 4.44329 103.095 7.00162 103.095 11.1537C103.095 14.4366 104.06 17.1417 106.378 19.3086C108.454 21.2891 111.013 22.2537 114.391 22.2537C121.381 22.2537 124.282 17.0532 124.764 15.124H119.1C118.112 16.6641 116.5 17.6241 114.403 17.6241C112.136 17.6241 110.831 16.5126 110.209 15.6436C109.51 14.7255 109.179 13.3741 109.179 12.116H124.82V11.636C124.82 9.36656 124.531 6.08361 122.311 3.42742C120.861 1.68924 118.399 0 114.151 0ZM109.37 8.35302C109.546 7.17697 110.142 6.10439 111.047 5.33346C111.953 4.56253 113.106 4.14536 114.295 4.15903C116.467 4.15903 118.785 5.51043 119.268 8.35302H109.37Z" />
  </g>
</svg>